<svg aria-hidden="true" style="position: absolute; width: 0; height: 0; overflow: hidden;" version="1.1" xmlns="http://www.w3.org/2000/svg" xmlns:xlink="http://www.w3.org/1999/xlink">
<defs>
<symbol id="icon-star-svgrepo-com" viewBox="0 0 32 32">
<path fill="#fdd835" style="fill: var(--color1, #fdd835)" d="M17.012 1.808l3.365 7.675c0.258 0.578 0.802 0.987 1.448 1.047l0.007 0.001 8.197 0.735c0.927 0.135 1.297 1.272 0.625 1.928l-6.175 5.188c-0.5 0.42-0.727 1.080-0.59 1.718l1.795 8.402c0.157 0.922-0.81 1.628-1.64 1.19l-7.155-4.19c-0.255-0.152-0.562-0.242-0.89-0.242s-0.635 0.090-0.898 0.246l0.008-0.004-7.155 4.188c-0.827 0.435-1.798-0.267-1.64-1.19l1.795-8.402c0.135-0.637-0.090-1.297-0.59-1.718l-6.178-5.183c-0.67-0.652-0.3-1.793 0.625-1.928l8.197-0.735c0.653-0.061 1.197-0.469 1.451-1.036l0.004-0.011 3.365-7.675c0.418-0.84 1.613-0.84 2.027-0.002z"></path>
<path fill="#ffff8d" style="fill: var(--color2, #ffff8d)" d="M16.767 9.943l-0.57-5.655c-0.023-0.315-0.087-0.855 0.418-0.855 0.4 0 0.617 0.833 0.617 0.833l1.71 4.54c0.645 1.727 0.38 2.32-0.242 2.67-0.715 0.4-1.77 0.088-1.933-1.533z"></path>
<path fill="#f4b400" style="fill: var(--color3, #f4b400)" d="M23.82 17.878l4.905-3.828c0.242-0.203 0.68-0.525 0.33-0.893-0.277-0.29-1.027 0.127-1.027 0.127l-4.293 1.678c-1.28 0.443-2.13 1.097-2.205 1.923-0.098 1.1 0.89 1.948 2.29 0.992z"></path>
</symbol>
</defs>
</svg>